# xmcd
# 
# Track frame offsets:
#     150
#     23255
#     45590
#     80010
#     107307
#     135660
#     158097
#     191965
#     220425
#     242392
# 
# Disc length: 3396
# 
# Revision: 1
# Processed by: cddbd v1.5.2PL0 Copyright (c) Steve Scherf et al.
# Submitted via: BonkEnc v1.0.8
# 
DISCID=780d420a
DTITLE=Pork Pie [feat. Jasper van't Hof - Charlie Mariano - Philip Catherine] - Operanoia
DYEAR=1996
DGENRE=Contemporary Jazz
TTITLE0=Arthur Rainbow 
TTITLE1=Hippie
TTITLE2=Merci Afrique
TTITLE3=Candy Lip
TTITLE4=Get Down
TTITLE5=Ballade
TTITLE6=Lazy Day
TTITLE7=Operanoia
TTITLE8=Zulu Stomp
TTITLE9=The Quiet American
EXTD=YEAR: 1996\nCharlie Mariano\nJasper vant Hof\nPhilip Ctherine\nfeat. Don Alias\n
EXTT0=
EXTT1=
EXTT2=
EXTT3=
EXTT4=
EXTT5=
EXTT6=
EXTT7=
EXTT8=
EXTT9=
PLAYORDER=
